Coordinates
version=1
nRows=16
nColumns=36
inDegrees=yes

Units are S.I. units (second, meters, Newtons, ...)
If the header above contains a line with 'inDegrees', this indicates whether rotational values are in degrees (yes) or radians (no).

endheader
time	pelvis_tilt	pelvis_list	pelvis_rotation	pelvis_tx	pelvis_ty	pelvis_tz	hip_flexion_r	hip_adduction_r	hip_rotation_r	knee_angle_r	knee_angle_r_beta	ankle_angle_r	subtalar_angle_r	mtp_angle_r	hip_flexion_l	hip_adduction_l	hip_rotation_l	knee_angle_l	knee_angle_l_beta	ankle_angle_l	subtalar_angle_l	mtp_angle_l	lumbar_extension	lumbar_bending	lumbar_rotation	arm_flex_r	arm_add_r	arm_rot_r	elbow_flex_r	pro_sup_r	arm_flex_l	arm_add_l	arm_rot_l	elbow_flex_l	pro_sup_l
      0.00000000	     -1.09094956	      2.50626111	     12.05914893	      0.65091147	      0.97911152	     -0.07690576	      4.91484332	      6.32371985	      4.33963971	     13.74858409	      0.23995806	     10.20343726	    -11.96101712	     -6.56308701	     15.78599475	     -1.24186785	      5.30631982	      7.21099500	      0.12585561	     -2.04424421	    -10.25329219	     -6.56308701	    -14.10415759	      0.26213262	     -1.65747213	     32.59118377	      5.16715355	     60.57159487	    127.23439005	    112.46596048	     28.77480219	      8.27440028	     67.37839831	    122.69597246	    111.49500163
      0.01666670	     -5.00855698	      2.01918860	     10.20576072	      0.65428293	      0.97279255	     -0.07601350	     10.17668181	      6.06264145	      6.42687428	     15.41960402	      0.26912286	     13.67359079	    -10.81570206	     -6.78174292	     19.11724437	     -1.80055042	      5.79572503	      6.43669188	      0.11234147	     -2.78247235	     -9.07566236	     -6.78174292	     -8.47945099	      0.60287980	      0.02041499	     32.70143248	      4.79477784	     62.64827932	    129.10884477	    110.77174734	     27.80531523	      8.91267193	     68.33931341	    124.25930098	    109.73538612
      0.03333330	     -6.63090335	      2.08571356	      9.50696281	      0.65544277	      0.96690454	     -0.07403489	     11.81691345	      6.01609874	      6.38502986	     15.40911010	      0.26893971	     13.82219864	    -11.46776844	     -6.94847361	     20.75276261	     -2.00479577	      5.92532323	      5.80757010	      0.10136122	     -3.06763794	     -9.00251783	     -6.94847361	     -6.48366853	      0.30489489	      1.15012990	     32.11612625	      4.84809593	     64.06979022	    129.02063944	    108.95427601	     27.58342976	      8.90274498	     68.74637044	    125.05499782	    107.79789508
      0.05000000	     -7.20225616	      2.27204271	      9.04291213	      0.65581788	      0.96866785	     -0.07333457	     12.53758825	      5.83258520	      6.42826059	     15.78513546	      0.27550259	     14.10432394	    -11.29399111	     -7.00133164	     21.19155401	     -1.97013847	      5.94123505	      5.52217904	      0.09638021	     -3.23882597	     -9.13323745	     -7.00133164	     -5.91870037	      0.00455623	      1.85827172	     31.29433348	      4.89417325	     65.55468732	    128.39737957	    108.05792685	     27.87751375	      8.88719103	     69.34773649	    124.90893747	    106.72691964
      0.06666670	     -7.47661536	      2.30919669	      8.94434122	      0.65613644	      0.96854490	     -0.07310370	     12.85020261	      5.74011854	      6.34996204	     15.75692821	      0.27501028	     14.17607942	    -11.07701750	     -7.07812091	     21.40663202	     -1.89081037	      6.26575101	      5.47726225	      0.09559626	     -3.53034308	     -9.90525289	     -7.07812091	     -5.60782068	      0.11468185	      2.01502007	     30.66296205	      4.93738903	     67.02061094	    127.57707196	    104.97812979	     28.17804731	      8.79282951	     70.17246862	    124.71809835	    102.92522870
      0.08333330	     -7.74260637	      2.35144809	      8.88648888	      0.65623497	      0.96638354	     -0.07299404	     13.26807176	      5.66088451	      6.35774407	     16.02621737	      0.27971026	     14.30124873	    -11.09280781	     -7.16571910	     21.70404343	     -1.78007509	      6.16491923	      5.68794904	      0.09927344	     -3.45587240	    -10.23451097	     -7.16571910	     -5.17456915	      0.10199991	      2.14300606	     29.97949224	      5.13632363	     67.79221409	    127.08179437	    102.49357235	     28.28370024	      8.85115514	     70.93082913	    124.60669088	     99.17495974
      0.10000000	     -8.01918846	      2.41503770	      8.73779262	      0.65663122	      0.96813882	     -0.07332607	     13.55650307	      5.54102614	      6.37574010	     16.14260735	      0.28174165	     14.22951056	    -11.17747852	     -7.20364205	     21.96114301	     -1.65670392	      6.06826615	      5.77197458	      0.10073996	     -3.47159284	    -10.53104182	     -7.20364205	     -4.61861868	      0.11717977	      2.23757326	     29.60194550	      5.04739407	     68.20400515	    126.86186865	    100.80860951	     28.13250000	      8.82891642	     71.07723547	    124.61160128	     97.33599640
      0.11666670	     -8.16561561	      2.46119790	      8.79877254	      0.65671916	      0.96814990	     -0.07346301	     13.68700552	      5.43575106	      6.33731079	     16.17619032	      0.28232778	     13.91870725	    -11.49353209	     -7.24442014	     22.07877904	     -1.49494626	      6.10723794	      5.84871911	      0.10207941	     -3.57658078	    -10.90617927	     -7.24442014	     -4.26901890	      0.10903114	      2.17431625	     29.39118286	      4.90981188	     68.47320705	    126.53680016	     98.38770567	     28.03006604	      8.83511887	     71.33134639	    124.52947269	     94.76807530
      0.13333330	     -8.14426247	      2.51819431	      8.85172906	      0.66022321	      0.96492211	     -0.07610086	     13.57646607	      5.31507659	      6.31380724	     16.25983386	      0.28378764	     13.93129251	    -11.51997251	     -7.24509189	     21.93974168	     -1.32835142	      6.08070553	      5.97400492	      0.10426606	     -3.55796450	    -10.92706526	     -7.24509189	     -4.03731379	      0.20511319	      2.12036843	     29.33006810	      4.87631897	     68.51027107	    126.50323181	     98.34248492	     28.00118079	      8.89466404	     71.37493375	    124.50725498	     94.72185357
      0.15000000	     -8.45348952	      2.62922560	      8.94486058	      0.65662760	      0.96479634	     -0.07298079	     14.07202745	      5.17959855	      6.48178548	     16.54935368	      0.28884071	     14.19133248	    -11.85742547	     -7.24910870	     22.28861342	     -1.13053576	      6.19908391	      6.04330356	      0.10547554	     -3.75983766	    -11.58937562	     -7.24910870	     -3.63960878	     -0.09339718	      1.82863481	     29.11840450	      5.11566068	     68.48852916	    126.41653628	     98.22844878	     28.00976587	      8.75019918	     71.44472556	    124.57561594	     94.34942873
      0.16666670	     -8.66354248	      2.58438952	      8.98275550	      0.65653876	      0.96739108	     -0.07253807	     14.38128008	      5.23665639	      6.55782217	     16.54750393	      0.28880843	     14.13143740	    -12.16885512	     -7.29408676	     22.55959521	     -1.16813905	      6.28155198	      6.15431424	      0.10741305	     -4.01324463	    -11.96979116	     -7.29408676	     -3.33608059	     -0.12667095	      1.80744616	     29.14606402	      5.28766552	     68.76794682	    126.17180386	     95.50518984	     27.87445394	      8.62707899	     71.52888489	    124.56781057	     91.26998815
      0.18333330	     -8.73906342	      2.59958420	      8.88377564	      0.65680436	      0.96963001	     -0.07236761	     14.43867805	      5.27156206	      6.81559082	     16.38498910	      0.28597201	     14.01882602	    -12.21937420	     -7.30895054	     22.57580951	     -1.20588694	      6.22586105	      6.02309177	      0.10512278	     -4.36204019	    -12.33994660	     -7.30895054	     -3.30633171	     -0.21855148	      1.76104355	     29.30126665	      5.68543215	     69.07527529	    125.94779197	     94.80596488	     27.76670486	      8.43962908	     71.53289048	    124.50858239	     90.01089810
      0.20000000	     -8.66043998	      2.65402087	      8.85034504	      0.65686921	      0.97136888	     -0.07226218	     14.18940559	      5.28204771	      6.90262397	     16.13439154	      0.28159826	     13.89166738	    -12.12591066	     -7.33267087	     22.39762065	     -1.19459077	      6.09935397	      5.89076248	      0.10281320	     -4.53037303	    -12.26431314	     -7.33267087	     -3.47333916	     -0.31600433	      1.75475901	     29.42854037	      5.88500564	     69.15342864	    125.90133475	     93.53740069	     27.54856499	      8.32035366	     71.56041429	    124.51165747	     88.11159340
      0.21666670	     -8.73046533	      2.72012558	      8.74333012	      0.65697538	      0.96858864	     -0.07254913	     14.22734890	      5.22608505	      7.01010918	     16.07082329	      0.28048878	     13.81401785	    -12.05556426	     -7.34548928	     22.39363669	     -1.15436694	      5.94145712	      5.86754246	      0.10240793	     -4.66230670	    -12.20802341	     -7.34548928	     -3.50490124	     -0.40268880	      1.80296893	     29.53155730	      6.13369631	     69.28290216	    125.95175519	     92.99473437	     27.45924120	      8.27681984	     71.54019038	    124.51896074	     86.98384991
      0.23333330	     -8.59530953	      2.85010722	      8.68783863	      0.65703677	      0.96902670	     -0.07194328	     14.00552801	      5.14058415	      7.05359920	     15.99453379	      0.27915728	     13.85811912	    -11.96986647	     -7.42890091	     22.15810572	     -1.07032546	      5.86493980	      5.73617980	      0.10011522	     -4.93127377	    -12.32012191	     -7.42890091	     -3.76252757	     -0.58713309	      1.84656323	     29.52877426	      6.46573707	     69.27991953	    125.85408236	     96.38579862	     27.55296992	      8.24452987	     71.57556750	    124.43039104	     85.98444863
      0.25000000	     -8.57578590	      2.91542323	      8.71634730	      0.65702180	      0.96857212	     -0.07238546	     13.98660530	      5.08121769	      7.11430678	     15.93223016	      0.27806987	     13.94243632	    -11.82262396	     -7.46236526	     22.11829472	     -1.02012108	      5.73987687	      5.72267121	      0.09987945	     -5.08766087	    -12.34404588	     -7.46236526	     -3.82665701	     -0.68686390	      1.93114568	     29.38928571	      6.65376717	     69.45991491	    125.87238839	     96.38434446	     27.49170170	      8.33303419	     71.59522982	    124.47449855	     85.11131425
